<svg width="2000" height="2000" viewBox="0 0 2000 2000" fill="none" xmlns="http://www.w3.org/2000/svg">
<g filter="url(#filter0_n_3034_3736)">
<g clip-path="url(#clip0_3034_3736)">
<rect width="2000" height="2000" fill="#2B00FF" fill-opacity="0.3"/>
<g filter="url(#filter1_f_3034_3736)">
<ellipse cx="1335" cy="825" rx="1061" ry="502" fill="#050090"/>
</g>
<g filter="url(#filter2_f_3034_3736)">
<ellipse cx="2675" cy="2140" rx="1061" ry="502" fill="#050090"/>
</g>
<g filter="url(#filter3_f_3034_3736)">
<path d="M459.762 1310.9C506.37 1283.99 526.045 1214.37 514.885 1115.84C503.725 1017.32 462.545 897.091 399.516 779.017C336.486 660.943 256.213 553.649 174.622 478.422C93.031 403.196 16.085 365.533 -40.9498 372.908C-97.9846 380.283 -130.94 432.155 -133.279 518.234C-135.617 604.313 -107.167 718.308 -53.5732 837.602C0.0206231 956.896 74.8419 1072.77 156.046 1162.24C237.25 1251.71 318.903 1308.23 384.804 1320.59L192.262 847.574L459.762 1310.9Z" fill="#050090"/>
</g>
<g filter="url(#filter4_f_3034_3736)">
<ellipse cx="419" cy="-282" rx="1061" ry="502" fill="#050090"/>
</g>
<g filter="url(#filter5_f_3034_3736)">
<ellipse cx="3207" cy="57" rx="1061" ry="502" fill="#050090"/>
</g>
<g filter="url(#filter6_f_3034_3736)">
<ellipse cx="491" cy="1319.5" rx="679" ry="319.5" fill="#050090"/>
</g>
</g>
</g>
<path d="M1801.76 1098C1801.76 1297.2 1747.16 1456.8 1637.96 1576.8C1534.76 1695.6 1407.56 1755 1256.36 1755C1105.16 1755 978.56 1695.6 876.56 1576.8C767.36 1456.8 712.76 1297.2 712.76 1098C712.76 898.8 767.36 739.2 876.56 619.2C978.56 500.4 1105.16 441 1256.36 441C1407.56 441 1534.76 500.4 1637.96 619.2C1747.16 739.2 1801.76 898.8 1801.76 1098ZM1675.76 1098C1675.76 1015.2 1665.56 939 1645.16 869.4C1624.76 799.8 1593.56 736.2 1551.56 678.6C1469.96 568.2 1371.56 513 1256.36 513C1143.56 513 1045.76 568.8 962.96 680.4C878.96 793.2 836.96 932.4 836.96 1098C836.96 1261.2 878.96 1399.8 962.96 1513.8C1046.96 1626.6 1144.76 1683 1256.36 1683C1371.56 1683 1469.36 1626.6 1549.76 1513.8C1633.76 1404.6 1675.76 1266 1675.76 1098Z" fill="white"/>
<path d="M1262.22 1237.4C1262.22 1350.2 1220.82 1437.8 1138.02 1500.2C1061.22 1559 957.422 1588.4 826.622 1588.4H205.622V1527.2C270.422 1527.2 313.022 1520.6 333.422 1507.4C355.022 1488.2 365.822 1461.2 365.822 1426.4V503C365.822 487.4 363.422 475.4 358.622 467C353.822 451.4 346.622 438.2 337.022 427.4C311.822 405.8 268.022 395 205.622 395V333.8H796.022C932.822 333.8 1035.42 359 1103.82 409.4C1173.42 461 1208.22 536 1208.22 634.4C1208.22 695.6 1185.42 752.6 1139.82 805.4C1119.42 828.2 1096.02 848.6 1069.62 866.6C1044.42 883.4 1016.22 897.8 985.022 909.8C1059.42 931.4 1118.82 962.6 1163.22 1003.4C1229.22 1062.2 1262.22 1140.2 1262.22 1237.4ZM1084.02 632.6C1084.02 596.6 1076.82 563.6 1062.42 533.6C1049.22 503.6 1030.62 478.4 1006.62 458C982.622 437.6 953.222 422.6 918.422 413C883.622 403.4 845.822 398.6 805.022 398.6H610.622C579.422 398.6 554.222 402.2 535.022 409.4C499.022 426.2 481.022 456.8 481.022 501.2V886.4H806.822C829.622 886.4 851.822 884.6 873.422 881C917.822 872.6 958.622 852.2 995.822 819.8C1054.62 771.8 1084.02 709.4 1084.02 632.6ZM1138.02 1237.4C1138.02 1157 1110.42 1089.8 1055.22 1035.8C997.622 981.8 923.822 954.8 833.822 954.8H481.022V1424.6C481.022 1471.4 498.422 1501.4 533.222 1514.6C551.222 1520.6 577.022 1523.6 610.622 1523.6H823.022C914.222 1523.6 988.622 1500.2 1046.22 1453.4C1107.42 1401.8 1138.02 1329.8 1138.02 1237.4Z" fill="white"/>
<defs>
<filter id="filter0_n_3034_3736" x="0" y="0" width="2000" height="2000" filterUnits="userSpaceOnUse" color-interpolation-filters="sRGB">
<feFlood flood-opacity="0" result="BackgroundImageFix"/>
<feBlend mode="normal" in="SourceGraphic" in2="BackgroundImageFix" result="shape"/>
<feTurbulence type="fractalNoise" baseFrequency="0.5 0.5" stitchTiles="stitch" numOctaves="3" result="noise" seed="7367" />
<feColorMatrix in="noise" type="luminanceToAlpha" result="alphaNoise" />
<feComponentTransfer in="alphaNoise" result="coloredNoise1">
<feFuncA type="discrete" tableValues="1 1 1 1 1 1 1 1 1 1 1 1 1 1 1 1 1 1 1 1 1 1 1 1 1 1 1 1 1 1 1 1 1 1 1 1 1 1 1 1 1 1 1 1 1 1 1 1 1 1 1 0 0 0 0 0 0 0 0 0 0 0 0 0 0 0 0 0 0 0 0 0 0 0 0 0 0 0 0 0 0 0 0 0 0 0 0 0 0 0 0 0 0 0 0 0 0 0 0 0 "/>
</feComponentTransfer>
<feComposite operator="in" in2="shape" in="coloredNoise1" result="noise1Clipped" />
<feComponentTransfer in="alphaNoise" result="coloredNoise2">
<feFuncA type="discrete" tableValues="0 0 0 0 0 0 0 0 0 0 0 0 0 0 0 0 0 0 0 0 0 0 0 0 0 0 0 0 0 0 0 0 0 0 0 0 0 0 0 0 0 0 0 0 0 0 0 0 0 1 1 1 1 1 1 1 1 1 1 1 1 1 1 1 1 1 1 1 1 1 1 1 1 1 1 1 1 1 1 1 1 1 1 1 1 1 1 1 1 1 1 1 1 1 1 1 1 1 1 1 "/>
</feComponentTransfer>
<feComposite operator="in" in2="shape" in="coloredNoise2" result="noise2Clipped" />
<feFlood flood-color="rgba(0, 0, 0, 0.25)" result="color1Flood" />
<feComposite operator="in" in2="noise1Clipped" in="color1Flood" result="color1" />
<feFlood flood-color="rgba(163, 149, 255, 0.5)" result="color2Flood" />
<feComposite operator="in" in2="noise2Clipped" in="color2Flood" result="color2" />
<feMerge result="effect1_noise_3034_3736">
<feMergeNode in="shape" />
<feMergeNode in="color1" />
<feMergeNode in="color2" />
</feMerge>
</filter>
<filter id="filter1_f_3034_3736" x="-226" y="-177" width="3122" height="2004" filterUnits="userSpaceOnUse" color-interpolation-filters="sRGB">
<feFlood flood-opacity="0" result="BackgroundImageFix"/>
<feBlend mode="normal" in="SourceGraphic" in2="BackgroundImageFix" result="shape"/>
<feGaussianBlur stdDeviation="250" result="effect1_foregroundBlur_3034_3736"/>
</filter>
<filter id="filter2_f_3034_3736" x="1364" y="1388" width="2622" height="1504" filterUnits="userSpaceOnUse" color-interpolation-filters="sRGB">
<feFlood flood-opacity="0" result="BackgroundImageFix"/>
<feBlend mode="normal" in="SourceGraphic" in2="BackgroundImageFix" result="shape"/>
<feGaussianBlur stdDeviation="125" result="effect1_foregroundBlur_3034_3736"/>
</filter>
<filter id="filter3_f_3034_3736" x="-383.412" y="121.998" width="1151.35" height="1448.59" filterUnits="userSpaceOnUse" color-interpolation-filters="sRGB">
<feFlood flood-opacity="0" result="BackgroundImageFix"/>
<feBlend mode="normal" in="SourceGraphic" in2="BackgroundImageFix" result="shape"/>
<feGaussianBlur stdDeviation="125" result="effect1_foregroundBlur_3034_3736"/>
</filter>
<filter id="filter4_f_3034_3736" x="-892" y="-1034" width="2622" height="1504" filterUnits="userSpaceOnUse" color-interpolation-filters="sRGB">
<feFlood flood-opacity="0" result="BackgroundImageFix"/>
<feBlend mode="normal" in="SourceGraphic" in2="BackgroundImageFix" result="shape"/>
<feGaussianBlur stdDeviation="125" result="effect1_foregroundBlur_3034_3736"/>
</filter>
<filter id="filter5_f_3034_3736" x="1646" y="-945" width="3122" height="2004" filterUnits="userSpaceOnUse" color-interpolation-filters="sRGB">
<feFlood flood-opacity="0" result="BackgroundImageFix"/>
<feBlend mode="normal" in="SourceGraphic" in2="BackgroundImageFix" result="shape"/>
<feGaussianBlur stdDeviation="250" result="effect1_foregroundBlur_3034_3736"/>
</filter>
<filter id="filter6_f_3034_3736" x="-438" y="750" width="1858" height="1139" filterUnits="userSpaceOnUse" color-interpolation-filters="sRGB">
<feFlood flood-opacity="0" result="BackgroundImageFix"/>
<feBlend mode="normal" in="SourceGraphic" in2="BackgroundImageFix" result="shape"/>
<feGaussianBlur stdDeviation="125" result="effect1_foregroundBlur_3034_3736"/>
</filter>
<clipPath id="clip0_3034_3736">
<rect width="2000" height="2000" fill="white"/>
</clipPath>
</defs>
</svg>
