<svg width="2960" height="1000" viewBox="0 0 2960 1000" fill="none" xmlns="http://www.w3.org/2000/svg">
<g filter="url(#filter0_n_3040_3746)">
<g clip-path="url(#clip0_3040_3746)">
<rect width="2960" height="1000" fill="#2B00FF" fill-opacity="0.3"/>
<g filter="url(#filter1_f_3040_3746)">
<ellipse cx="1335" cy="825" rx="1061" ry="502" fill="#050090"/>
</g>
<g filter="url(#filter2_f_3040_3746)">
<path d="M459.762 1310.9C506.37 1283.99 526.045 1214.37 514.885 1115.84C503.725 1017.32 462.545 897.091 399.516 779.017C336.486 660.943 256.213 553.649 174.622 478.422C93.031 403.196 16.085 365.533 -40.9498 372.908C-97.9846 380.283 -130.94 432.155 -133.279 518.234C-135.617 604.313 -107.167 718.308 -53.5732 837.602C0.0206231 956.896 74.8419 1072.77 156.046 1162.24C237.25 1251.71 318.903 1308.23 384.804 1320.59L192.262 847.574L459.762 1310.9Z" fill="#050090"/>
</g>
<g filter="url(#filter3_f_3040_3746)">
<ellipse cx="419" cy="-282" rx="1061" ry="502" fill="#050090"/>
</g>
<g filter="url(#filter4_f_3040_3746)">
<ellipse cx="3207" cy="57" rx="1061" ry="502" fill="#050090"/>
</g>
<g filter="url(#filter5_f_3040_3746)">
<ellipse cx="491" cy="1319.5" rx="679" ry="319.5" fill="#050090"/>
</g>
</g>
</g>
<path d="M306.163 497.84C306.163 532.368 296.699 560.032 277.771 580.832C259.883 601.424 237.835 611.72 211.627 611.72C185.419 611.72 163.475 601.424 145.795 580.832C126.867 560.032 117.403 532.368 117.403 497.84C117.403 463.312 126.867 435.648 145.795 414.848C163.475 394.256 185.419 383.96 211.627 383.96C237.835 383.96 259.883 394.256 277.771 414.848C296.699 435.648 306.163 463.312 306.163 497.84ZM284.323 497.84C284.323 483.488 282.555 470.28 279.019 458.216C275.483 446.152 270.075 435.128 262.795 425.144C248.651 406.008 231.595 396.44 211.627 396.44C192.075 396.44 175.123 406.112 160.771 425.456C146.211 445.008 138.931 469.136 138.931 497.84C138.931 526.128 146.211 550.152 160.771 569.912C175.331 589.464 192.283 599.24 211.627 599.24C231.595 599.24 248.547 589.464 262.483 569.912C277.043 550.984 284.323 526.96 284.323 497.84ZM468.313 534.344C468.313 557.64 461.761 576.152 448.657 589.88C436.385 602.36 421.409 608.6 403.729 608.6C386.049 608.6 372.425 604.44 362.857 596.12V627.32C362.857 632.728 364.313 636.68 367.225 639.176C370.761 641.88 375.961 643.232 382.825 643.232V653.528H323.545V643.232C331.865 643.232 337.481 641.88 340.393 639.176C342.473 637.096 343.513 633.144 343.513 627.32V492.848C343.513 491.808 343.305 490.248 342.889 488.168C342.681 486.504 342.057 485.152 341.017 484.112C338.937 482.032 333.529 480.992 324.793 480.992C324.585 479.952 324.377 478.808 324.169 477.56C324.169 476.312 324.065 475.168 323.857 474.128C330.513 471.84 337.065 469.552 343.513 467.264C349.961 464.768 356.409 462.376 362.857 460.088V472.568C373.673 464.248 387.609 460.088 404.665 460.088C423.177 460.088 438.257 466.536 449.905 479.432C462.177 493.576 468.313 511.88 468.313 534.344ZM447.409 534.656C447.409 516.56 442.729 501.896 433.369 490.664C424.217 479.016 412.361 473.192 397.801 473.192C383.241 473.192 371.593 477.872 362.857 487.232V580.52C371.593 590.504 383.241 595.496 397.801 595.496C411.529 595.496 423.073 589.88 432.433 578.648C442.417 566.792 447.409 552.128 447.409 534.656ZM571.824 575.84C572.864 576.672 573.8 577.4 574.632 578.024C575.672 578.648 576.712 579.272 577.752 579.896C574.008 588.632 568.912 595.912 562.464 601.736C555.184 608.6 547.28 612.032 538.752 612.032C527.52 612.032 518.992 607.976 513.168 599.864C511.504 596.952 510.152 593.624 509.112 589.88C508.072 586.136 507.552 581.976 507.552 577.4V474.128H483.216V464.144C494.448 464.144 502.768 459.88 508.176 451.352C514.208 441.576 517.224 427.64 517.224 409.544H526.584V461.96H567.456V474.128H526.584V579.584C526.584 590.608 532.408 596.12 544.056 596.12C553.416 596.12 562.672 589.36 571.824 575.84ZM640.081 400.184C640.081 405.176 638.417 409.336 635.089 412.664C631.761 415.992 627.601 417.656 622.609 417.656C618.033 417.656 614.185 415.992 611.065 412.664C608.153 409.336 606.697 405.176 606.697 400.184C606.697 395.192 608.257 391.032 611.377 387.704C614.497 384.376 618.241 382.712 622.609 382.712C627.601 382.712 631.761 384.376 635.089 387.704C638.417 391.032 640.081 395.192 640.081 400.184ZM654.745 606.728H596.401V596.432C604.929 596.432 610.441 595.184 612.937 592.688C615.017 590.816 616.057 587.384 616.057 582.392V492.536C616.057 487.96 615.121 484.84 613.249 483.176C610.961 481.304 605.449 480.368 596.713 480.368L595.465 473.504L635.089 458.528V582.392C635.089 588.216 636.025 591.856 637.897 593.312C640.601 595.392 646.217 596.432 654.745 596.432V606.728ZM908.387 606.416H846.299V596.432C853.995 596.432 859.611 595.288 863.147 593C865.643 590.504 866.891 586.552 866.891 581.144V498.776C866.891 483.176 858.259 475.376 840.995 475.376C827.891 475.376 813.747 481.616 798.563 494.096V581.144C798.563 586.76 799.915 590.608 802.619 592.688C804.699 593.728 807.091 594.56 809.795 595.184C812.499 596.016 815.619 596.432 819.155 596.432V606.416H758.939V596.432C766.427 596.432 771.939 595.288 775.475 593C777.971 590.92 779.219 586.968 779.219 581.144V495.656C779.219 482.344 771.003 475.688 754.571 475.688C739.803 475.688 725.139 482.24 710.579 495.344V581.144C710.579 587.176 711.931 591.128 714.635 593C718.795 595.288 724.723 596.432 732.419 596.432V606.416H669.395V596.432C678.963 596.432 685.515 594.664 689.051 591.128C690.715 588.84 691.547 586.24 691.547 583.328V493.784C691.547 490.456 691.027 487.856 689.987 485.984C689.155 484.112 687.179 482.656 684.059 481.616C682.395 481.2 680.523 480.888 678.443 480.68C676.363 480.264 673.867 480.056 670.955 480.056C670.747 479.016 670.539 477.976 670.331 476.936C670.123 475.688 669.915 474.544 669.707 473.504C676.571 471.216 683.435 468.928 690.299 466.64C697.163 464.352 703.923 462.064 710.579 459.776V481.928C728.467 467.16 746.355 459.776 764.243 459.776C781.715 459.776 792.843 467.472 797.627 482.864C815.515 467.472 833.403 459.776 851.291 459.776C865.019 459.776 874.691 463.832 880.307 471.944C884.259 477.768 886.235 485.568 886.235 495.344V581.144C886.235 586.76 887.587 590.608 890.291 592.688C891.955 593.728 894.347 594.56 897.467 595.184C900.587 596.016 904.227 596.432 908.387 596.432V606.416ZM969.449 400.184C969.449 405.176 967.785 409.336 964.457 412.664C961.129 415.992 956.969 417.656 951.977 417.656C947.401 417.656 943.553 415.992 940.433 412.664C937.521 409.336 936.065 405.176 936.065 400.184C936.065 395.192 937.625 391.032 940.745 387.704C943.865 384.376 947.609 382.712 951.977 382.712C956.969 382.712 961.129 384.376 964.457 387.704C967.785 391.032 969.449 395.192 969.449 400.184ZM984.113 606.728H925.769V596.432C934.297 596.432 939.809 595.184 942.305 592.688C944.385 590.816 945.425 587.384 945.425 582.392V492.536C945.425 487.96 944.489 484.84 942.617 483.176C940.329 481.304 934.817 480.368 926.081 480.368L924.833 473.504L964.457 458.528V582.392C964.457 588.216 965.393 591.856 967.265 593.312C969.969 595.392 975.585 596.432 984.113 596.432V606.728ZM1118.57 555.872C1119.61 556.496 1120.75 557.12 1122 557.744C1123.25 558.16 1124.39 558.576 1125.43 558.992C1122.52 566.896 1119.51 574.8 1116.39 582.704C1113.47 590.608 1110.56 598.512 1107.65 606.416H999.386C999.178 605.376 999.074 604.232 999.074 602.984C999.074 601.944 999.074 600.8 999.074 599.552C1031.73 557.744 1064.49 515.624 1097.35 473.192H1055.55C1047.23 473.192 1039.53 476.104 1032.46 481.928C1025.39 487.128 1018.21 496.28 1010.93 509.384C1009.68 508.968 1008.43 508.448 1007.19 507.824C1005.94 507.2 1004.79 506.68 1003.75 506.264C1006.67 498.984 1009.58 491.6 1012.49 484.112C1015.61 476.624 1018.63 469.24 1021.54 461.96H1123.87V469.448C1107.03 490.664 1090.39 511.672 1073.95 532.472C1057.73 553.064 1041.19 573.968 1024.35 595.184H1069.9C1077.59 595.184 1083.83 594.248 1088.62 592.376C1093.4 590.296 1097.87 586.864 1102.03 582.08C1104.74 579.168 1107.44 575.528 1110.15 571.16C1112.85 566.792 1115.66 561.696 1118.57 555.872ZM1269.97 568.976C1271.01 569.808 1272.05 570.64 1273.09 571.472C1274.34 572.304 1275.48 573.136 1276.52 573.968C1271.53 581.456 1266.02 587.696 1259.99 592.688C1253.96 597.68 1247.51 601.84 1240.64 605.168C1231.28 609.744 1221.2 612.032 1210.38 612.032C1189.79 612.032 1172.94 605.48 1159.84 592.376C1145.9 578.44 1138.93 559.616 1138.93 535.904C1138.93 513.024 1145.59 494.616 1158.9 480.68C1172 466.328 1188.64 459.152 1208.82 459.152C1229 459.152 1244.91 464.976 1256.56 476.624C1269.04 488.48 1275.28 505.64 1275.28 528.104C1255.93 528.728 1236.9 529.456 1218.18 530.288C1199.46 530.912 1180.32 531.536 1160.77 532.16C1160.77 532.992 1160.67 533.824 1160.46 534.656C1160.46 535.28 1160.46 536.008 1160.46 536.84C1160.46 545.576 1161.6 553.48 1163.89 560.552C1166.39 567.624 1169.92 573.968 1174.5 579.584C1184.07 592.064 1197.48 598.304 1214.75 598.304C1223.9 598.304 1233.47 595.912 1243.45 591.128C1248.03 588.424 1252.5 585.304 1256.87 581.768C1261.44 578.024 1265.81 573.76 1269.97 568.976ZM1161.4 520.304C1177 519.888 1192.39 519.368 1207.57 518.744C1222.76 518.12 1238.15 517.6 1253.75 517.184C1253.54 503.456 1249.28 492.432 1240.96 484.112C1232.43 474.96 1221.72 470.384 1208.82 470.384C1196.34 470.384 1185.42 475.376 1176.06 485.36C1167.32 494.512 1162.44 506.16 1161.4 520.304ZM1553.73 549.008C1554.77 549.632 1555.92 550.256 1557.16 550.88C1558.41 551.504 1559.56 552.128 1560.6 552.752C1557.06 562.112 1553.63 571.264 1550.3 580.208C1547.18 588.944 1543.85 597.68 1540.32 606.416H1379.64V596.432C1389.2 596.432 1396.17 594.872 1400.54 591.752C1404.08 588.632 1405.84 583.952 1405.84 577.712V417.344C1405.84 415.056 1405.53 413.08 1404.91 411.416C1403.87 408.712 1402.62 406.528 1401.16 404.864C1397 401.12 1389.83 399.248 1379.64 399.248V388.952H1533.14C1536.68 397.896 1540.11 406.736 1543.44 415.472C1546.97 424.208 1550.51 433.048 1554.04 441.992C1553 442.616 1551.96 443.344 1550.92 444.176C1549.88 444.8 1548.84 445.32 1547.8 445.736C1543.44 437 1538.55 429.824 1533.14 424.208C1527.73 418.592 1522.74 414.224 1518.16 411.104C1507.14 403.616 1494.35 399.872 1479.79 399.872H1446.72C1440.06 399.872 1434.65 401.328 1430.49 404.24C1427.37 406.736 1425.81 411.104 1425.81 417.344V487.544H1472.61C1482.6 487.544 1489.46 485.36 1493.2 480.992C1497.99 475.584 1500.38 465.392 1500.38 450.416H1509.74V536.84H1500.38C1500.38 520.824 1497.99 510.424 1493.2 505.64C1489.46 501.272 1482.6 499.088 1472.61 499.088H1425.81V578.024C1425.81 584.472 1427.37 589.048 1430.49 591.752C1432.57 593.416 1434.96 594.456 1437.67 594.872C1440.58 595.496 1443.8 595.808 1447.34 595.808H1483.22C1499.65 595.808 1512.44 592.792 1521.6 586.76C1527 583.224 1532.31 578.232 1537.51 571.784C1542.92 565.336 1548.32 557.744 1553.73 549.008ZM1729.01 471.944C1720.69 471.944 1714.97 472.672 1711.85 474.128C1708.73 475.584 1706.44 478.08 1704.99 481.616V482.552L1699.37 495.656C1691.88 515.208 1684.29 534.448 1676.59 553.376C1669.11 572.304 1661.62 591.44 1654.13 610.784H1646.95C1638.22 589.568 1629.48 568.56 1620.75 547.76C1612.22 526.96 1603.59 505.848 1594.85 484.424V481.616C1592.98 478.08 1590.48 475.584 1587.36 474.128C1584.45 472.672 1579.56 471.944 1572.7 471.944V461.96H1635.41V471.944C1623.55 471.944 1616.69 473.088 1614.82 475.376C1613.78 476.416 1613.26 477.664 1613.26 479.12C1613.26 479.952 1613.57 480.992 1614.19 482.24L1654.13 579.584C1659.75 565.232 1665.26 550.984 1670.67 536.84C1676.28 522.696 1681.9 508.448 1687.51 494.096C1688.55 492.016 1689.39 490.04 1690.01 488.168C1690.84 486.088 1691.78 484.008 1692.82 481.928C1693.23 480.264 1693.44 479.328 1693.44 479.12C1693.44 478.288 1693.34 477.768 1693.13 477.56C1692.51 475.896 1691.36 474.544 1689.7 473.504C1686.58 472.256 1680.96 471.632 1672.85 471.632V461.96H1729.01V471.944ZM1871.43 568.976C1872.47 569.808 1873.51 570.64 1874.55 571.472C1875.79 572.304 1876.94 573.136 1877.98 573.968C1872.99 581.456 1867.47 587.696 1861.44 592.688C1855.41 597.68 1848.96 601.84 1842.1 605.168C1832.74 609.744 1822.65 612.032 1811.83 612.032C1791.24 612.032 1774.39 605.48 1761.29 592.376C1747.35 578.44 1740.39 559.616 1740.39 535.904C1740.39 513.024 1747.04 494.616 1760.35 480.68C1773.46 466.328 1790.1 459.152 1810.27 459.152C1830.45 459.152 1846.36 464.976 1858.01 476.624C1870.49 488.48 1876.73 505.64 1876.73 528.104C1857.39 528.728 1838.35 529.456 1819.63 530.288C1800.91 530.912 1781.78 531.536 1762.23 532.16C1762.23 532.992 1762.12 533.824 1761.91 534.656C1761.91 535.28 1761.91 536.008 1761.91 536.84C1761.91 545.576 1763.06 553.48 1765.35 560.552C1767.84 567.624 1771.38 573.968 1775.95 579.584C1785.52 592.064 1798.94 598.304 1816.2 598.304C1825.35 598.304 1834.92 595.912 1844.91 591.128C1849.48 588.424 1853.95 585.304 1858.32 581.768C1862.9 578.024 1867.27 573.76 1871.43 568.976ZM1762.85 520.304C1778.45 519.888 1793.84 519.368 1809.03 518.744C1824.21 518.12 1839.6 517.6 1855.2 517.184C1854.99 503.456 1850.73 492.432 1842.41 484.112C1833.88 474.96 1823.17 470.384 1810.27 470.384C1797.79 470.384 1786.87 475.376 1777.51 485.36C1768.78 494.512 1763.89 506.16 1762.85 520.304ZM2010.02 473.192C2010.02 484.008 2005.24 489.416 1995.67 489.416C1991.72 489.416 1987.35 487.648 1982.56 484.112C1979.03 481.2 1975.18 479.744 1971.02 479.744C1965.61 479.744 1958.85 482.864 1950.74 489.104C1944.29 494.096 1938.05 499.816 1932.02 506.264V581.768C1932.02 587.592 1933.06 591.44 1935.14 593.312C1937.43 595.392 1943.15 596.432 1952.3 596.432V606.416H1893.02V596.432C1898.43 596.432 1902.59 596.016 1905.5 595.184C1908.41 594.352 1910.39 593.104 1911.43 591.44C1912.47 589.776 1912.99 587.176 1912.99 583.64V492.536C1912.99 488.376 1912.26 485.568 1910.8 484.112C1909.97 483.28 1908.2 482.344 1905.5 481.304C1902.59 480.68 1899.05 480.368 1894.89 480.368C1894.48 479.328 1894.16 478.288 1893.96 477.248C1893.75 476.208 1893.44 475.168 1893.02 474.128C1899.68 471.424 1906.23 468.824 1912.68 466.328C1919.12 463.624 1925.57 460.92 1932.02 458.216V490.352C1937.01 485.568 1942 481.2 1947 477.248C1951.99 473.296 1956.88 469.968 1961.66 467.264C1972.06 461.232 1982.15 458.216 1991.92 458.216C2003.99 458.216 2010.02 463.208 2010.02 473.192ZM2091.46 595.496L2038.74 482.24C2036.66 478.288 2034.47 475.688 2032.18 474.44C2030.94 473.816 2029.27 473.296 2027.19 472.88C2025.11 472.464 2021.89 472.256 2017.52 472.256V461.96H2077.11V472.256C2071.7 472.256 2067.75 472.36 2065.26 472.568C2062.76 472.776 2061.1 473.504 2060.26 474.752C2059.22 476.208 2059.12 478.288 2059.95 480.992C2060.78 483.488 2061.82 486.088 2063.07 488.792L2101.14 570.224L2134.83 492.224C2137.12 486.816 2138.26 482.968 2138.26 480.68C2138.26 478.392 2137.74 476.624 2136.7 475.376C2135.66 474.336 2134.21 473.608 2132.34 473.192C2130.46 472.568 2127.14 472.256 2122.35 472.256V461.96H2176.33V472.256C2167.8 472.256 2161.77 473.4 2158.23 475.688C2153.86 478.392 2150.02 483.8 2146.69 491.912L2093.34 617.336C2087.3 631.064 2081.17 640.424 2074.93 645.416C2069.31 649.784 2062.14 651.968 2053.4 651.968C2050.7 651.968 2048.1 651.552 2045.6 650.72C2043.1 650.096 2040.71 648.952 2038.42 647.288C2033.43 643.544 2030.94 638.76 2030.94 632.936C2030.94 622.744 2035.3 617.648 2044.04 617.648C2053.4 617.648 2058.08 621.704 2058.08 629.816C2058.08 632.936 2059.02 634.912 2060.89 635.744C2062.14 636.368 2063.38 636.68 2064.63 636.68C2066.3 636.68 2067.96 636.056 2069.62 634.808C2073.99 631.48 2079.4 622.744 2085.85 608.6L2091.46 595.496ZM2273.2 575.84C2274.24 576.672 2275.18 577.4 2276.01 578.024C2277.05 578.648 2278.09 579.272 2279.13 579.896C2275.38 588.632 2270.29 595.912 2263.84 601.736C2256.56 608.6 2248.66 612.032 2240.13 612.032C2228.9 612.032 2220.37 607.976 2214.54 599.864C2212.88 596.952 2211.53 593.624 2210.49 589.88C2209.45 586.136 2208.93 581.976 2208.93 577.4V474.128H2184.59V464.144C2195.82 464.144 2204.14 459.88 2209.55 451.352C2215.58 441.576 2218.6 427.64 2218.6 409.544H2227.96V461.96H2268.83V474.128H2227.96V579.584C2227.96 590.608 2233.78 596.12 2245.43 596.12C2254.79 596.12 2264.05 589.36 2273.2 575.84ZM2445.35 606.416H2383.58V596.12C2392.1 596.12 2398.14 594.976 2401.67 592.688C2404.17 590.608 2405.42 586.864 2405.42 581.456V503.768C2405.42 485.048 2395.33 475.688 2375.15 475.688C2360.8 475.688 2346.03 481.72 2330.85 493.784V581.456C2330.85 586.864 2332.2 590.608 2334.9 592.688C2338.44 594.976 2344.26 596.12 2352.38 596.12V606.416H2291.22V596.12C2299.13 596.12 2304.85 594.976 2308.38 592.688C2310.67 590.4 2311.82 586.656 2311.82 581.456V422.024C2311.82 416.2 2310.78 412.352 2308.7 410.48C2306.41 408.4 2300.9 407.36 2292.16 407.36C2291.95 406.32 2291.74 405.384 2291.54 404.552C2291.54 403.512 2291.43 402.472 2291.22 401.432C2297.88 398.728 2304.43 396.128 2310.88 393.632C2317.54 390.928 2324.19 388.224 2330.85 385.52V480.368C2348.74 466.224 2365.9 459.152 2382.33 459.152C2396.06 459.152 2406.56 462.688 2413.84 469.76C2420.91 477.04 2424.45 487.336 2424.45 500.648V581.456C2424.45 587.072 2425.59 590.816 2427.88 592.688C2432.04 594.976 2437.86 596.12 2445.35 596.12V606.416ZM2505.99 400.184C2505.99 405.176 2504.32 409.336 2501 412.664C2497.67 415.992 2493.51 417.656 2488.52 417.656C2483.94 417.656 2480.09 415.992 2476.97 412.664C2474.06 409.336 2472.6 405.176 2472.6 400.184C2472.6 395.192 2474.16 391.032 2477.28 387.704C2480.4 384.376 2484.15 382.712 2488.52 382.712C2493.51 382.712 2497.67 384.376 2501 387.704C2504.32 391.032 2505.99 395.192 2505.99 400.184ZM2520.65 606.728H2462.31V596.432C2470.84 596.432 2476.35 595.184 2478.84 592.688C2480.92 590.816 2481.96 587.384 2481.96 582.392V492.536C2481.96 487.96 2481.03 484.84 2479.16 483.176C2476.87 481.304 2471.36 480.368 2462.62 480.368L2461.37 473.504L2501 458.528V582.392C2501 588.216 2501.93 591.856 2503.8 593.312C2506.51 595.392 2512.12 596.432 2520.65 596.432V606.728ZM2686.93 606.416H2626.09V596.432C2633.37 596.432 2638.47 595.496 2641.38 593.624C2644.92 591.336 2646.69 586.864 2646.69 580.208V501.896C2646.69 484.424 2638.47 475.688 2622.04 475.688C2612.26 475.688 2604.05 477.352 2597.39 480.68C2594.48 482.136 2591.05 484.112 2587.09 486.608C2583.14 488.896 2578.77 491.704 2573.99 495.032V580.208C2573.99 586.448 2575.34 590.608 2578.05 592.688C2579.71 593.728 2582 594.56 2584.91 595.184C2587.82 596.016 2591.36 596.432 2595.52 596.432V606.416H2534.68V596.432C2542.58 596.432 2548.3 595.184 2551.84 592.688C2553.92 590.608 2554.96 586.448 2554.96 580.208V494.096C2554.96 488.48 2553.92 484.944 2551.84 483.488C2548.93 481.2 2543.62 480.056 2535.93 480.056C2535.51 479.016 2535.2 477.872 2534.99 476.624C2534.99 475.376 2534.78 474.232 2534.37 473.192C2541.02 470.904 2547.57 468.616 2554.02 466.328C2560.68 464.04 2567.33 461.752 2573.99 459.464V481.616C2591.67 467.056 2609.66 459.776 2627.97 459.776C2640.65 459.776 2650.12 463.416 2656.36 470.696C2662.6 478.184 2665.72 488.792 2665.72 502.52V579.896C2665.72 586.344 2666.97 590.608 2669.46 592.688C2671.13 593.728 2673.41 594.56 2676.33 595.184C2679.24 596.016 2682.77 596.432 2686.93 596.432V606.416ZM2756.94 594.248C2733.02 599.448 2721.06 607.976 2721.06 619.832C2721.06 626.904 2725.53 632.312 2734.47 636.056C2743.83 639.592 2756.94 641.36 2773.78 641.36C2779.19 641.36 2784.18 641.048 2788.76 640.424C2793.54 640.008 2797.91 639.176 2801.86 637.928C2803.11 637.512 2804.36 636.992 2805.61 636.368C2806.86 635.952 2808 635.536 2809.04 635.12C2818.4 631.376 2823.08 626.592 2823.08 620.768C2823.08 616.608 2821 613.176 2816.84 610.472C2812.68 607.768 2804.88 604.96 2793.44 602.048C2788.86 601.008 2783.46 599.864 2777.22 598.616C2771.18 597.368 2764.42 595.912 2756.94 594.248ZM2849.91 470.072C2849.91 477.976 2846.48 481.928 2839.62 481.928C2836.7 481.928 2833.9 480.888 2831.19 478.808C2829.74 477.976 2828.38 477.352 2827.14 476.936C2825.89 476.312 2824.64 476 2823.39 476C2822.35 476 2821.73 476.104 2821.52 476.312C2819.86 476.52 2818.19 477.664 2816.53 479.744C2822.56 487.648 2825.58 497.528 2825.58 509.384C2825.58 523.32 2820.38 534.968 2809.98 544.328C2799.37 553.688 2785.64 558.368 2768.79 558.368C2764.01 558.368 2759.74 558.16 2756 557.744C2752.26 557.328 2748.93 556.808 2746.02 556.184C2737.07 558.056 2732.6 560.968 2732.6 564.92C2732.6 568.872 2736.24 571.68 2743.52 573.344C2745.6 573.76 2747.68 574.176 2749.76 574.592C2751.84 574.8 2753.82 575.112 2755.69 575.528C2765.26 577.608 2773.78 579.48 2781.27 581.144C2788.76 582.808 2795.42 584.368 2801.24 585.824C2807.06 587.28 2812.16 588.84 2816.53 590.504C2821.1 591.96 2824.95 593.728 2828.07 595.808C2837.22 601.216 2841.8 608.08 2841.8 616.4C2841.8 640.32 2817.57 652.28 2769.1 652.28C2723.76 652.28 2701.09 641.672 2701.09 620.456C2701.09 614.216 2705.25 607.976 2713.57 601.736C2717.31 598.824 2721.37 596.432 2725.74 594.56C2730.1 592.688 2734.78 591.232 2739.78 590.192C2721.68 585.616 2712.63 578.96 2712.63 570.224C2712.63 561.696 2719.7 555.04 2733.85 550.256C2719.29 540.896 2712.01 527.064 2712.01 508.76C2712.01 494.824 2717.42 483.176 2728.23 473.816C2739.05 464.248 2752.57 459.464 2768.79 459.464C2786.06 459.464 2799.47 463.312 2809.04 471.008C2815.9 462.896 2824.12 458.84 2833.69 458.84C2844.5 458.84 2849.91 462.584 2849.91 470.072ZM2806.23 509.384C2806.23 503.768 2805.3 498.672 2803.42 494.096C2801.55 489.312 2798.95 485.256 2795.62 481.928C2792.3 478.392 2788.34 475.688 2783.77 473.816C2779.19 471.736 2774.3 470.696 2769.1 470.696C2757.87 470.696 2748.82 474.232 2741.96 481.304C2735.3 488.376 2731.98 497.528 2731.98 508.76C2731.98 519.784 2735.41 528.728 2742.27 535.592C2749.34 543.288 2758.29 547.136 2769.1 547.136C2779.5 547.136 2788.24 543.6 2795.31 536.528C2802.59 529.248 2806.23 520.2 2806.23 509.384Z" fill="white"/>
<defs>
<filter id="filter0_n_3040_3746" x="0" y="0" width="2960" height="1000" filterUnits="userSpaceOnUse" color-interpolation-filters="sRGB">
<feFlood flood-opacity="0" result="BackgroundImageFix"/>
<feBlend mode="normal" in="SourceGraphic" in2="BackgroundImageFix" result="shape"/>
<feTurbulence type="fractalNoise" baseFrequency="1 1" stitchTiles="stitch" numOctaves="3" result="noise" seed="7367" />
<feColorMatrix in="noise" type="luminanceToAlpha" result="alphaNoise" />
<feComponentTransfer in="alphaNoise" result="coloredNoise1">
<feFuncA type="discrete" tableValues="1 1 1 1 1 1 1 1 1 1 1 1 1 1 1 1 1 1 1 1 1 1 1 1 1 1 1 1 1 1 1 1 1 1 1 1 1 1 1 1 1 1 1 1 1 1 1 1 1 1 1 0 0 0 0 0 0 0 0 0 0 0 0 0 0 0 0 0 0 0 0 0 0 0 0 0 0 0 0 0 0 0 0 0 0 0 0 0 0 0 0 0 0 0 0 0 0 0 0 0 "/>
</feComponentTransfer>
<feComposite operator="in" in2="shape" in="coloredNoise1" result="noise1Clipped" />
<feComponentTransfer in="alphaNoise" result="coloredNoise2">
<feFuncA type="discrete" tableValues="0 0 0 0 0 0 0 0 0 0 0 0 0 0 0 0 0 0 0 0 0 0 0 0 0 0 0 0 0 0 0 0 0 0 0 0 0 0 0 0 0 0 0 0 0 0 0 0 0 1 1 1 1 1 1 1 1 1 1 1 1 1 1 1 1 1 1 1 1 1 1 1 1 1 1 1 1 1 1 1 1 1 1 1 1 1 1 1 1 1 1 1 1 1 1 1 1 1 1 1 "/>
</feComponentTransfer>
<feComposite operator="in" in2="shape" in="coloredNoise2" result="noise2Clipped" />
<feFlood flood-color="rgba(0, 0, 0, 0.25)" result="color1Flood" />
<feComposite operator="in" in2="noise1Clipped" in="color1Flood" result="color1" />
<feFlood flood-color="rgba(163, 149, 255, 0.5)" result="color2Flood" />
<feComposite operator="in" in2="noise2Clipped" in="color2Flood" result="color2" />
<feMerge result="effect1_noise_3040_3746">
<feMergeNode in="shape" />
<feMergeNode in="color1" />
<feMergeNode in="color2" />
</feMerge>
</filter>
<filter id="filter1_f_3040_3746" x="-226" y="-177" width="3122" height="2004" filterUnits="userSpaceOnUse" color-interpolation-filters="sRGB">
<feFlood flood-opacity="0" result="BackgroundImageFix"/>
<feBlend mode="normal" in="SourceGraphic" in2="BackgroundImageFix" result="shape"/>
<feGaussianBlur stdDeviation="250" result="effect1_foregroundBlur_3040_3746"/>
</filter>
<filter id="filter2_f_3040_3746" x="-383.412" y="121.998" width="1151.35" height="1448.59" filterUnits="userSpaceOnUse" color-interpolation-filters="sRGB">
<feFlood flood-opacity="0" result="BackgroundImageFix"/>
<feBlend mode="normal" in="SourceGraphic" in2="BackgroundImageFix" result="shape"/>
<feGaussianBlur stdDeviation="125" result="effect1_foregroundBlur_3040_3746"/>
</filter>
<filter id="filter3_f_3040_3746" x="-892" y="-1034" width="2622" height="1504" filterUnits="userSpaceOnUse" color-interpolation-filters="sRGB">
<feFlood flood-opacity="0" result="BackgroundImageFix"/>
<feBlend mode="normal" in="SourceGraphic" in2="BackgroundImageFix" result="shape"/>
<feGaussianBlur stdDeviation="125" result="effect1_foregroundBlur_3040_3746"/>
</filter>
<filter id="filter4_f_3040_3746" x="1646" y="-945" width="3122" height="2004" filterUnits="userSpaceOnUse" color-interpolation-filters="sRGB">
<feFlood flood-opacity="0" result="BackgroundImageFix"/>
<feBlend mode="normal" in="SourceGraphic" in2="BackgroundImageFix" result="shape"/>
<feGaussianBlur stdDeviation="250" result="effect1_foregroundBlur_3040_3746"/>
</filter>
<filter id="filter5_f_3040_3746" x="-438" y="750" width="1858" height="1139" filterUnits="userSpaceOnUse" color-interpolation-filters="sRGB">
<feFlood flood-opacity="0" result="BackgroundImageFix"/>
<feBlend mode="normal" in="SourceGraphic" in2="BackgroundImageFix" result="shape"/>
<feGaussianBlur stdDeviation="125" result="effect1_foregroundBlur_3040_3746"/>
</filter>
<clipPath id="clip0_3040_3746">
<rect width="2960" height="1000" fill="white"/>
</clipPath>
</defs>
</svg>
