<svg width="2960" height="422" viewBox="0 0 2960 422" fill="none" xmlns="http://www.w3.org/2000/svg">
<path d="M306.163 197.84C306.163 232.368 296.699 260.032 277.771 280.832C259.883 301.424 237.835 311.72 211.627 311.72C185.419 311.72 163.475 301.424 145.795 280.832C126.867 260.032 117.403 232.368 117.403 197.84C117.403 163.312 126.867 135.648 145.795 114.848C163.475 94.256 185.419 83.96 211.627 83.96C237.835 83.96 259.883 94.256 277.771 114.848C296.699 135.648 306.163 163.312 306.163 197.84ZM284.323 197.84C284.323 183.488 282.555 170.28 279.019 158.216C275.483 146.152 270.075 135.128 262.795 125.144C248.651 106.008 231.595 96.44 211.627 96.44C192.075 96.44 175.123 106.112 160.771 125.456C146.211 145.008 138.931 169.136 138.931 197.84C138.931 226.128 146.211 250.152 160.771 269.912C175.331 289.464 192.283 299.24 211.627 299.24C231.595 299.24 248.547 289.464 262.483 269.912C277.043 250.984 284.323 226.96 284.323 197.84ZM468.313 234.344C468.313 257.64 461.761 276.152 448.657 289.88C436.385 302.36 421.409 308.6 403.729 308.6C386.049 308.6 372.425 304.44 362.857 296.12V327.32C362.857 332.728 364.313 336.68 367.225 339.176C370.761 341.88 375.961 343.232 382.825 343.232V353.528H323.545V343.232C331.865 343.232 337.481 341.88 340.393 339.176C342.473 337.096 343.513 333.144 343.513 327.32V192.848C343.513 191.808 343.305 190.248 342.889 188.168C342.681 186.504 342.057 185.152 341.017 184.112C338.937 182.032 333.529 180.992 324.793 180.992C324.585 179.952 324.377 178.808 324.169 177.56C324.169 176.312 324.065 175.168 323.857 174.128C330.513 171.84 337.065 169.552 343.513 167.264C349.961 164.768 356.409 162.376 362.857 160.088V172.568C373.673 164.248 387.609 160.088 404.665 160.088C423.177 160.088 438.257 166.536 449.905 179.432C462.177 193.576 468.313 211.88 468.313 234.344ZM447.409 234.656C447.409 216.56 442.729 201.896 433.369 190.664C424.217 179.016 412.361 173.192 397.801 173.192C383.241 173.192 371.593 177.872 362.857 187.232V280.52C371.593 290.504 383.241 295.496 397.801 295.496C411.529 295.496 423.073 289.88 432.433 278.648C442.417 266.792 447.409 252.128 447.409 234.656ZM571.824 275.84C572.864 276.672 573.8 277.4 574.632 278.024C575.672 278.648 576.712 279.272 577.752 279.896C574.008 288.632 568.912 295.912 562.464 301.736C555.184 308.6 547.28 312.032 538.752 312.032C527.52 312.032 518.992 307.976 513.168 299.864C511.504 296.952 510.152 293.624 509.112 289.88C508.072 286.136 507.552 281.976 507.552 277.4V174.128H483.216V164.144C494.448 164.144 502.768 159.88 508.176 151.352C514.208 141.576 517.224 127.64 517.224 109.544H526.584V161.96H567.456V174.128H526.584V279.584C526.584 290.608 532.408 296.12 544.056 296.12C553.416 296.12 562.672 289.36 571.824 275.84ZM640.081 100.184C640.081 105.176 638.417 109.336 635.089 112.664C631.761 115.992 627.601 117.656 622.609 117.656C618.033 117.656 614.185 115.992 611.065 112.664C608.153 109.336 606.697 105.176 606.697 100.184C606.697 95.192 608.257 91.032 611.377 87.704C614.497 84.376 618.241 82.712 622.609 82.712C627.601 82.712 631.761 84.376 635.089 87.704C638.417 91.032 640.081 95.192 640.081 100.184ZM654.745 306.728H596.401V296.432C604.929 296.432 610.441 295.184 612.937 292.688C615.017 290.816 616.057 287.384 616.057 282.392V192.536C616.057 187.96 615.121 184.84 613.249 183.176C610.961 181.304 605.449 180.368 596.713 180.368L595.465 173.504L635.089 158.528V282.392C635.089 288.216 636.025 291.856 637.897 293.312C640.601 295.392 646.217 296.432 654.745 296.432V306.728ZM908.387 306.416H846.299V296.432C853.995 296.432 859.611 295.288 863.147 293C865.643 290.504 866.891 286.552 866.891 281.144V198.776C866.891 183.176 858.259 175.376 840.995 175.376C827.891 175.376 813.747 181.616 798.563 194.096V281.144C798.563 286.76 799.915 290.608 802.619 292.688C804.699 293.728 807.091 294.56 809.795 295.184C812.499 296.016 815.619 296.432 819.155 296.432V306.416H758.939V296.432C766.427 296.432 771.939 295.288 775.475 293C777.971 290.92 779.219 286.968 779.219 281.144V195.656C779.219 182.344 771.003 175.688 754.571 175.688C739.803 175.688 725.139 182.24 710.579 195.344V281.144C710.579 287.176 711.931 291.128 714.635 293C718.795 295.288 724.723 296.432 732.419 296.432V306.416H669.395V296.432C678.963 296.432 685.515 294.664 689.051 291.128C690.715 288.84 691.547 286.24 691.547 283.328V193.784C691.547 190.456 691.027 187.856 689.987 185.984C689.155 184.112 687.179 182.656 684.059 181.616C682.395 181.2 680.523 180.888 678.443 180.68C676.363 180.264 673.867 180.056 670.955 180.056C670.747 179.016 670.539 177.976 670.331 176.936C670.123 175.688 669.915 174.544 669.707 173.504C676.571 171.216 683.435 168.928 690.299 166.64C697.163 164.352 703.923 162.064 710.579 159.776V181.928C728.467 167.16 746.355 159.776 764.243 159.776C781.715 159.776 792.843 167.472 797.627 182.864C815.515 167.472 833.403 159.776 851.291 159.776C865.019 159.776 874.691 163.832 880.307 171.944C884.259 177.768 886.235 185.568 886.235 195.344V281.144C886.235 286.76 887.587 290.608 890.291 292.688C891.955 293.728 894.347 294.56 897.467 295.184C900.587 296.016 904.227 296.432 908.387 296.432V306.416ZM969.449 100.184C969.449 105.176 967.785 109.336 964.457 112.664C961.129 115.992 956.969 117.656 951.977 117.656C947.401 117.656 943.553 115.992 940.433 112.664C937.521 109.336 936.065 105.176 936.065 100.184C936.065 95.192 937.625 91.032 940.745 87.704C943.865 84.376 947.609 82.712 951.977 82.712C956.969 82.712 961.129 84.376 964.457 87.704C967.785 91.032 969.449 95.192 969.449 100.184ZM984.113 306.728H925.769V296.432C934.297 296.432 939.809 295.184 942.305 292.688C944.385 290.816 945.425 287.384 945.425 282.392V192.536C945.425 187.96 944.489 184.84 942.617 183.176C940.329 181.304 934.817 180.368 926.081 180.368L924.833 173.504L964.457 158.528V282.392C964.457 288.216 965.393 291.856 967.265 293.312C969.969 295.392 975.585 296.432 984.113 296.432V306.728ZM1118.57 255.872C1119.61 256.496 1120.75 257.12 1122 257.744C1123.25 258.16 1124.39 258.576 1125.43 258.992C1122.52 266.896 1119.51 274.8 1116.39 282.704C1113.47 290.608 1110.56 298.512 1107.65 306.416H999.386C999.178 305.376 999.074 304.232 999.074 302.984C999.074 301.944 999.074 300.8 999.074 299.552C1031.73 257.744 1064.49 215.624 1097.35 173.192H1055.55C1047.23 173.192 1039.53 176.104 1032.46 181.928C1025.39 187.128 1018.21 196.28 1010.93 209.384C1009.68 208.968 1008.43 208.448 1007.19 207.824C1005.94 207.2 1004.79 206.68 1003.75 206.264C1006.67 198.984 1009.58 191.6 1012.49 184.112C1015.61 176.624 1018.63 169.24 1021.54 161.96H1123.87V169.448C1107.03 190.664 1090.39 211.672 1073.95 232.472C1057.73 253.064 1041.19 273.968 1024.35 295.184H1069.9C1077.59 295.184 1083.83 294.248 1088.62 292.376C1093.4 290.296 1097.87 286.864 1102.03 282.08C1104.74 279.168 1107.44 275.528 1110.15 271.16C1112.85 266.792 1115.66 261.696 1118.57 255.872ZM1269.97 268.976C1271.01 269.808 1272.05 270.64 1273.09 271.472C1274.34 272.304 1275.48 273.136 1276.52 273.968C1271.53 281.456 1266.02 287.696 1259.99 292.688C1253.96 297.68 1247.51 301.84 1240.64 305.168C1231.28 309.744 1221.2 312.032 1210.38 312.032C1189.79 312.032 1172.94 305.48 1159.84 292.376C1145.9 278.44 1138.93 259.616 1138.93 235.904C1138.93 213.024 1145.59 194.616 1158.9 180.68C1172 166.328 1188.64 159.152 1208.82 159.152C1229 159.152 1244.91 164.976 1256.56 176.624C1269.04 188.48 1275.28 205.64 1275.28 228.104C1255.93 228.728 1236.9 229.456 1218.18 230.288C1199.46 230.912 1180.32 231.536 1160.77 232.16C1160.77 232.992 1160.67 233.824 1160.46 234.656C1160.46 235.28 1160.46 236.008 1160.46 236.84C1160.46 245.576 1161.6 253.48 1163.89 260.552C1166.39 267.624 1169.92 273.968 1174.5 279.584C1184.07 292.064 1197.48 298.304 1214.75 298.304C1223.9 298.304 1233.47 295.912 1243.45 291.128C1248.03 288.424 1252.5 285.304 1256.87 281.768C1261.44 278.024 1265.81 273.76 1269.97 268.976ZM1161.4 220.304C1177 219.888 1192.39 219.368 1207.57 218.744C1222.76 218.12 1238.15 217.6 1253.75 217.184C1253.54 203.456 1249.28 192.432 1240.96 184.112C1232.43 174.96 1221.72 170.384 1208.82 170.384C1196.34 170.384 1185.42 175.376 1176.06 185.36C1167.32 194.512 1162.44 206.16 1161.4 220.304ZM1553.73 249.008C1554.77 249.632 1555.92 250.256 1557.16 250.88C1558.41 251.504 1559.56 252.128 1560.6 252.752C1557.06 262.112 1553.63 271.264 1550.3 280.208C1547.18 288.944 1543.85 297.68 1540.32 306.416H1379.64V296.432C1389.2 296.432 1396.17 294.872 1400.54 291.752C1404.08 288.632 1405.84 283.952 1405.84 277.712V117.344C1405.84 115.056 1405.53 113.08 1404.91 111.416C1403.87 108.712 1402.62 106.528 1401.16 104.864C1397 101.12 1389.83 99.248 1379.64 99.248V88.952H1533.14C1536.68 97.896 1540.11 106.736 1543.44 115.472C1546.97 124.208 1550.51 133.048 1554.04 141.992C1553 142.616 1551.96 143.344 1550.92 144.176C1549.88 144.8 1548.84 145.32 1547.8 145.736C1543.44 137 1538.55 129.824 1533.14 124.208C1527.73 118.592 1522.74 114.224 1518.16 111.104C1507.14 103.616 1494.35 99.872 1479.79 99.872H1446.72C1440.06 99.872 1434.65 101.328 1430.49 104.24C1427.37 106.736 1425.81 111.104 1425.81 117.344V187.544H1472.61C1482.6 187.544 1489.46 185.36 1493.2 180.992C1497.99 175.584 1500.38 165.392 1500.38 150.416H1509.74V236.84H1500.38C1500.38 220.824 1497.99 210.424 1493.2 205.64C1489.46 201.272 1482.6 199.088 1472.61 199.088H1425.81V278.024C1425.81 284.472 1427.37 289.048 1430.49 291.752C1432.57 293.416 1434.96 294.456 1437.67 294.872C1440.58 295.496 1443.8 295.808 1447.34 295.808H1483.22C1499.65 295.808 1512.44 292.792 1521.6 286.76C1527 283.224 1532.31 278.232 1537.51 271.784C1542.92 265.336 1548.32 257.744 1553.73 249.008ZM1729.01 171.944C1720.69 171.944 1714.97 172.672 1711.85 174.128C1708.73 175.584 1706.44 178.08 1704.99 181.616V182.552L1699.37 195.656C1691.88 215.208 1684.29 234.448 1676.59 253.376C1669.11 272.304 1661.62 291.44 1654.13 310.784H1646.95C1638.22 289.568 1629.48 268.56 1620.75 247.76C1612.22 226.96 1603.59 205.848 1594.85 184.424V181.616C1592.98 178.08 1590.48 175.584 1587.36 174.128C1584.45 172.672 1579.56 171.944 1572.7 171.944V161.96H1635.41V171.944C1623.55 171.944 1616.69 173.088 1614.82 175.376C1613.78 176.416 1613.26 177.664 1613.26 179.12C1613.26 179.952 1613.57 180.992 1614.19 182.24L1654.13 279.584C1659.75 265.232 1665.26 250.984 1670.67 236.84C1676.28 222.696 1681.9 208.448 1687.51 194.096C1688.55 192.016 1689.39 190.04 1690.01 188.168C1690.84 186.088 1691.78 184.008 1692.82 181.928C1693.23 180.264 1693.44 179.328 1693.44 179.12C1693.44 178.288 1693.34 177.768 1693.13 177.56C1692.51 175.896 1691.36 174.544 1689.7 173.504C1686.58 172.256 1680.96 171.632 1672.85 171.632V161.96H1729.01V171.944ZM1871.43 268.976C1872.47 269.808 1873.51 270.64 1874.55 271.472C1875.79 272.304 1876.94 273.136 1877.98 273.968C1872.99 281.456 1867.47 287.696 1861.44 292.688C1855.41 297.68 1848.96 301.84 1842.1 305.168C1832.74 309.744 1822.65 312.032 1811.83 312.032C1791.24 312.032 1774.39 305.48 1761.29 292.376C1747.35 278.44 1740.39 259.616 1740.39 235.904C1740.39 213.024 1747.04 194.616 1760.35 180.68C1773.46 166.328 1790.1 159.152 1810.27 159.152C1830.45 159.152 1846.36 164.976 1858.01 176.624C1870.49 188.48 1876.73 205.64 1876.73 228.104C1857.39 228.728 1838.35 229.456 1819.63 230.288C1800.91 230.912 1781.78 231.536 1762.23 232.16C1762.23 232.992 1762.12 233.824 1761.91 234.656C1761.91 235.28 1761.91 236.008 1761.91 236.84C1761.91 245.576 1763.06 253.48 1765.35 260.552C1767.84 267.624 1771.38 273.968 1775.95 279.584C1785.52 292.064 1798.94 298.304 1816.2 298.304C1825.35 298.304 1834.92 295.912 1844.91 291.128C1849.48 288.424 1853.95 285.304 1858.32 281.768C1862.9 278.024 1867.27 273.76 1871.43 268.976ZM1762.85 220.304C1778.45 219.888 1793.84 219.368 1809.03 218.744C1824.21 218.12 1839.6 217.6 1855.2 217.184C1854.99 203.456 1850.73 192.432 1842.41 184.112C1833.88 174.96 1823.17 170.384 1810.27 170.384C1797.79 170.384 1786.87 175.376 1777.51 185.36C1768.78 194.512 1763.89 206.16 1762.85 220.304ZM2010.02 173.192C2010.02 184.008 2005.24 189.416 1995.67 189.416C1991.72 189.416 1987.35 187.648 1982.56 184.112C1979.03 181.2 1975.18 179.744 1971.02 179.744C1965.61 179.744 1958.85 182.864 1950.74 189.104C1944.29 194.096 1938.05 199.816 1932.02 206.264V281.768C1932.02 287.592 1933.06 291.44 1935.14 293.312C1937.43 295.392 1943.15 296.432 1952.3 296.432V306.416H1893.02V296.432C1898.43 296.432 1902.59 296.016 1905.5 295.184C1908.41 294.352 1910.39 293.104 1911.43 291.44C1912.47 289.776 1912.99 287.176 1912.99 283.64V192.536C1912.99 188.376 1912.26 185.568 1910.8 184.112C1909.97 183.28 1908.2 182.344 1905.5 181.304C1902.59 180.68 1899.05 180.368 1894.89 180.368C1894.48 179.328 1894.16 178.288 1893.96 177.248C1893.75 176.208 1893.44 175.168 1893.02 174.128C1899.68 171.424 1906.23 168.824 1912.68 166.328C1919.12 163.624 1925.57 160.92 1932.02 158.216V190.352C1937.01 185.568 1942 181.2 1947 177.248C1951.99 173.296 1956.88 169.968 1961.66 167.264C1972.06 161.232 1982.15 158.216 1991.92 158.216C2003.99 158.216 2010.02 163.208 2010.02 173.192ZM2091.46 295.496L2038.74 182.24C2036.66 178.288 2034.47 175.688 2032.18 174.44C2030.94 173.816 2029.27 173.296 2027.19 172.88C2025.11 172.464 2021.89 172.256 2017.52 172.256V161.96H2077.11V172.256C2071.7 172.256 2067.75 172.36 2065.26 172.568C2062.76 172.776 2061.1 173.504 2060.26 174.752C2059.22 176.208 2059.12 178.288 2059.95 180.992C2060.78 183.488 2061.82 186.088 2063.07 188.792L2101.14 270.224L2134.83 192.224C2137.12 186.816 2138.26 182.968 2138.26 180.68C2138.26 178.392 2137.74 176.624 2136.7 175.376C2135.66 174.336 2134.21 173.608 2132.34 173.192C2130.46 172.568 2127.14 172.256 2122.35 172.256V161.96H2176.33V172.256C2167.8 172.256 2161.77 173.4 2158.23 175.688C2153.86 178.392 2150.02 183.8 2146.69 191.912L2093.34 317.336C2087.3 331.064 2081.17 340.424 2074.93 345.416C2069.31 349.784 2062.14 351.968 2053.4 351.968C2050.7 351.968 2048.1 351.552 2045.6 350.72C2043.1 350.096 2040.71 348.952 2038.42 347.288C2033.43 343.544 2030.94 338.76 2030.94 332.936C2030.94 322.744 2035.3 317.648 2044.04 317.648C2053.4 317.648 2058.08 321.704 2058.08 329.816C2058.08 332.936 2059.02 334.912 2060.89 335.744C2062.14 336.368 2063.38 336.68 2064.63 336.68C2066.3 336.68 2067.96 336.056 2069.62 334.808C2073.99 331.48 2079.4 322.744 2085.85 308.6L2091.46 295.496ZM2273.2 275.84C2274.24 276.672 2275.18 277.4 2276.01 278.024C2277.05 278.648 2278.09 279.272 2279.13 279.896C2275.38 288.632 2270.29 295.912 2263.84 301.736C2256.56 308.6 2248.66 312.032 2240.13 312.032C2228.9 312.032 2220.37 307.976 2214.54 299.864C2212.88 296.952 2211.53 293.624 2210.49 289.88C2209.45 286.136 2208.93 281.976 2208.93 277.4V174.128H2184.59V164.144C2195.82 164.144 2204.14 159.88 2209.55 151.352C2215.58 141.576 2218.6 127.64 2218.6 109.544H2227.96V161.96H2268.83V174.128H2227.96V279.584C2227.96 290.608 2233.78 296.12 2245.43 296.12C2254.79 296.12 2264.05 289.36 2273.2 275.84ZM2445.35 306.416H2383.58V296.12C2392.1 296.12 2398.14 294.976 2401.67 292.688C2404.17 290.608 2405.42 286.864 2405.42 281.456V203.768C2405.42 185.048 2395.33 175.688 2375.15 175.688C2360.8 175.688 2346.03 181.72 2330.85 193.784V281.456C2330.85 286.864 2332.2 290.608 2334.9 292.688C2338.44 294.976 2344.26 296.12 2352.38 296.12V306.416H2291.22V296.12C2299.13 296.12 2304.85 294.976 2308.38 292.688C2310.67 290.4 2311.82 286.656 2311.82 281.456V122.024C2311.82 116.2 2310.78 112.352 2308.7 110.48C2306.41 108.4 2300.9 107.36 2292.16 107.36C2291.95 106.32 2291.74 105.384 2291.54 104.552C2291.54 103.512 2291.43 102.472 2291.22 101.432C2297.88 98.728 2304.43 96.128 2310.88 93.632C2317.54 90.928 2324.19 88.224 2330.85 85.52V180.368C2348.74 166.224 2365.9 159.152 2382.33 159.152C2396.06 159.152 2406.56 162.688 2413.84 169.76C2420.91 177.04 2424.45 187.336 2424.45 200.648V281.456C2424.45 287.072 2425.59 290.816 2427.88 292.688C2432.04 294.976 2437.86 296.12 2445.35 296.12V306.416ZM2505.99 100.184C2505.99 105.176 2504.32 109.336 2501 112.664C2497.67 115.992 2493.51 117.656 2488.52 117.656C2483.94 117.656 2480.09 115.992 2476.97 112.664C2474.06 109.336 2472.6 105.176 2472.6 100.184C2472.6 95.192 2474.16 91.032 2477.28 87.704C2480.4 84.376 2484.15 82.712 2488.52 82.712C2493.51 82.712 2497.67 84.376 2501 87.704C2504.32 91.032 2505.99 95.192 2505.99 100.184ZM2520.65 306.728H2462.31V296.432C2470.84 296.432 2476.35 295.184 2478.84 292.688C2480.92 290.816 2481.96 287.384 2481.96 282.392V192.536C2481.96 187.96 2481.03 184.84 2479.16 183.176C2476.87 181.304 2471.36 180.368 2462.62 180.368L2461.37 173.504L2501 158.528V282.392C2501 288.216 2501.93 291.856 2503.8 293.312C2506.51 295.392 2512.12 296.432 2520.65 296.432V306.728ZM2686.93 306.416H2626.09V296.432C2633.37 296.432 2638.47 295.496 2641.38 293.624C2644.92 291.336 2646.69 286.864 2646.69 280.208V201.896C2646.69 184.424 2638.47 175.688 2622.04 175.688C2612.26 175.688 2604.05 177.352 2597.39 180.68C2594.48 182.136 2591.05 184.112 2587.09 186.608C2583.14 188.896 2578.77 191.704 2573.99 195.032V280.208C2573.99 286.448 2575.34 290.608 2578.05 292.688C2579.71 293.728 2582 294.56 2584.91 295.184C2587.82 296.016 2591.36 296.432 2595.52 296.432V306.416H2534.68V296.432C2542.58 296.432 2548.3 295.184 2551.84 292.688C2553.92 290.608 2554.96 286.448 2554.96 280.208V194.096C2554.96 188.48 2553.92 184.944 2551.84 183.488C2548.93 181.2 2543.62 180.056 2535.93 180.056C2535.51 179.016 2535.2 177.872 2534.99 176.624C2534.99 175.376 2534.78 174.232 2534.37 173.192C2541.02 170.904 2547.57 168.616 2554.02 166.328C2560.68 164.04 2567.33 161.752 2573.99 159.464V181.616C2591.67 167.056 2609.66 159.776 2627.97 159.776C2640.65 159.776 2650.12 163.416 2656.36 170.696C2662.6 178.184 2665.72 188.792 2665.72 202.52V279.896C2665.72 286.344 2666.97 290.608 2669.46 292.688C2671.13 293.728 2673.41 294.56 2676.33 295.184C2679.24 296.016 2682.77 296.432 2686.93 296.432V306.416ZM2756.94 294.248C2733.02 299.448 2721.06 307.976 2721.06 319.832C2721.06 326.904 2725.53 332.312 2734.47 336.056C2743.83 339.592 2756.94 341.36 2773.78 341.36C2779.19 341.36 2784.18 341.048 2788.76 340.424C2793.54 340.008 2797.91 339.176 2801.86 337.928C2803.11 337.512 2804.36 336.992 2805.61 336.368C2806.86 335.952 2808 335.536 2809.04 335.12C2818.4 331.376 2823.08 326.592 2823.08 320.768C2823.08 316.608 2821 313.176 2816.84 310.472C2812.68 307.768 2804.88 304.96 2793.44 302.048C2788.86 301.008 2783.46 299.864 2777.22 298.616C2771.18 297.368 2764.42 295.912 2756.94 294.248ZM2849.91 170.072C2849.91 177.976 2846.48 181.928 2839.62 181.928C2836.7 181.928 2833.9 180.888 2831.19 178.808C2829.74 177.976 2828.38 177.352 2827.14 176.936C2825.89 176.312 2824.64 176 2823.39 176C2822.35 176 2821.73 176.104 2821.52 176.312C2819.86 176.52 2818.19 177.664 2816.53 179.744C2822.56 187.648 2825.58 197.528 2825.58 209.384C2825.58 223.32 2820.38 234.968 2809.98 244.328C2799.37 253.688 2785.64 258.368 2768.79 258.368C2764.01 258.368 2759.74 258.16 2756 257.744C2752.26 257.328 2748.93 256.808 2746.02 256.184C2737.07 258.056 2732.6 260.968 2732.6 264.92C2732.6 268.872 2736.24 271.68 2743.52 273.344C2745.6 273.76 2747.68 274.176 2749.76 274.592C2751.84 274.8 2753.82 275.112 2755.69 275.528C2765.26 277.608 2773.78 279.48 2781.27 281.144C2788.76 282.808 2795.42 284.368 2801.24 285.824C2807.06 287.28 2812.16 288.84 2816.53 290.504C2821.1 291.96 2824.95 293.728 2828.07 295.808C2837.22 301.216 2841.8 308.08 2841.8 316.4C2841.8 340.32 2817.57 352.28 2769.1 352.28C2723.76 352.28 2701.09 341.672 2701.09 320.456C2701.09 314.216 2705.25 307.976 2713.57 301.736C2717.31 298.824 2721.37 296.432 2725.74 294.56C2730.1 292.688 2734.78 291.232 2739.78 290.192C2721.68 285.616 2712.63 278.96 2712.63 270.224C2712.63 261.696 2719.7 255.04 2733.85 250.256C2719.29 240.896 2712.01 227.064 2712.01 208.76C2712.01 194.824 2717.42 183.176 2728.23 173.816C2739.05 164.248 2752.57 159.464 2768.79 159.464C2786.06 159.464 2799.47 163.312 2809.04 171.008C2815.9 162.896 2824.12 158.84 2833.69 158.84C2844.5 158.84 2849.91 162.584 2849.91 170.072ZM2806.23 209.384C2806.23 203.768 2805.3 198.672 2803.42 194.096C2801.55 189.312 2798.95 185.256 2795.62 181.928C2792.3 178.392 2788.34 175.688 2783.77 173.816C2779.19 171.736 2774.3 170.696 2769.1 170.696C2757.87 170.696 2748.82 174.232 2741.96 181.304C2735.3 188.376 2731.98 197.528 2731.98 208.76C2731.98 219.784 2735.41 228.728 2742.27 235.592C2749.34 243.288 2758.29 247.136 2769.1 247.136C2779.5 247.136 2788.24 243.6 2795.31 236.528C2802.59 229.248 2806.23 220.2 2806.23 209.384Z" fill="white"/>
</svg>
